# xmcd
#
# Track frame offsets:
#	150
#	16397
#	27375
#	44582
#	57200
#	67858
#	82223
#	101866
#	118106
#	129414
#
# Disc length: 1899 seconds
#
# Revision: 1
# Processed by: cddbd v1.5.2PL0 Copyright (c) Steve Scherf et al.
# Submitted via: audiograbber 1.83.01
#
DISCID=8a07690a
DTITLE=Tinnitus - Engel and Helden
DYEAR=2009
DGENRE=Rock
TTITLE0=Vier Parasiten
TTITLE1=Ein Tag vergeht
TTITLE2=Alles
TTITLE3=Bilderbuchtage
TTITLE4=Bonzen Business
TTITLE5=Engel and Helden
TTITLE6=Extraball
TTITLE7=Meinungsbildner
TTITLE8=1994
TTITLE9=Adios Realität
EXTD=
EXTT0=
EXTT1=
EXTT2=
EXTT3=
EXTT4=
EXTT5=
EXTT6=
EXTT7=
EXTT8=
EXTT9=
PLAYORDER=
